<?xml version="1.0" standalone="no"?>
<!DOCTYPE svg PUBLIC "-//W3C//DTD SVG 20010904//EN"
 "http://www.w3.org/TR/2001/REC-SVG-20010904/DTD/svg10.dtd">
<svg version="1.0" xmlns="http://www.w3.org/2000/svg"
 width="802.000000pt" height="333.000000pt" viewBox="0 0 802.000000 333.000000"
 preserveAspectRatio="xMidYMid meet">

<g transform="translate(0.000000,333.000000) scale(0.100000,-0.100000)"
fill="#000000" stroke="none">
<path d="M3942 2820 c-63 -13 -255 -92 -432 -177 -487 -234 -839 -415 -699
-359 20 8 108 51 197 96 222 111 324 158 564 260 397 170 491 179 538 52 47
-124 70 -261 70 -411 0 -89 -29 -353 -61 -566 -11 -71 -24 -157 -30 -190 -22
-148 -22 -148 -53 -156 -26 -7 -144 -28 -246 -43 -90 -14 -303 -18 -344 -6
-24 7 -89 47 -156 97 -230 171 -627 325 -862 333 -4 0 -3 12 2 26 15 38 13 49
-17 85 -30 35 -114 79 -153 79 -67 1 -48 19 112 105 315 170 399 217 394 223
-3 3 -34 -10 -68 -28 -219 -115 -306 -162 -428 -231 l-85 -48 -85 19 c-47 10
-133 29 -192 42 -60 14 -108 22 -108 17 0 -10 39 -22 195 -60 72 -17 134 -33
138 -36 4 -2 -42 -34 -102 -70 -148 -89 -279 -188 -320 -244 l-34 -46 -46 56
c-60 73 -119 153 -158 216 -35 55 -134 252 -137 271 -1 7 -7 18 -14 26 -23 28
-42 101 -42 159 0 32 -4 69 -10 83 -19 51 -60 20 -60 -46 0 -29 24 -121 44
-169 6 -14 1 -15 -41 -8 -26 4 -73 7 -103 7 l-55 -1 68 -8 c131 -15 143 -19
158 -47 39 -75 174 -301 206 -346 21 -28 83 -105 138 -170 55 -65 110 -132
123 -147 l23 -29 -63 6 c-35 3 -69 7 -76 10 -6 2 -12 -1 -12 -6 0 -5 36 -12
80 -16 l80 -7 103 -110 c243 -262 510 -452 922 -657 442 -219 773 -336 1042
-366 114 -13 127 7 143 213 14 178 36 393 54 513 8 52 17 117 20 143 3 27 10
83 17 127 l11 78 106 26 c59 15 148 37 197 50 134 36 279 56 396 56 95 0 112
3 196 36 57 22 100 45 112 60 l20 25 16 -31 c14 -27 15 -37 4 -61 -10 -25 -9
-32 6 -49 22 -25 37 -25 58 -2 32 35 14 137 -33 184 -45 44 -72 35 -115 -37
-14 -23 -179 -75 -240 -75 -78 0 -368 -61 -614 -129 l-103 -29 5 62 c5 51 37
275 52 366 38 226 56 570 36 685 -22 131 -62 262 -90 295 -30 36 -82 46 -159
30z m-1685 -916 c92 -36 133 -68 133 -102 0 -15 -4 -31 -8 -37 -4 -6 -79 -10
-187 -11 -199 0 -234 -7 -333 -67 -57 -34 -94 -83 -94 -124 l0 -25 -22 21
c-20 21 -20 21 -1 57 26 49 88 102 223 191 132 87 192 123 209 123 7 0 43 -12
80 -26z m79 -186 c9 -14 -20 -34 -111 -78 -88 -44 -144 -60 -288 -84 -74 -13
-102 -14 -118 -5 -21 11 -20 12 16 49 83 85 218 130 388 128 59 0 110 -5 113
-10z m205 -14 c108 -19 212 -50 352 -105 182 -73 282 -129 389 -221 32 -27 81
-65 109 -84 57 -38 97 -42 219 -24 36 6 112 17 170 25 58 8 145 23 193 33 l89
19 -7 -51 c-8 -66 -75 -497 -80 -516 -2 -8 -7 -62 -10 -120 -10 -162 -33 -295
-58 -327 -27 -36 -280 2 -475 71 -23 8 -45 15 -48 15 -5 -1 -123 44 -244 93
-314 128 -660 318 -883 487 -114 86 -287 243 -369 336 l-62 70 65 5 64 5 -75
8 c-64 7 -78 11 -96 35 l-22 27 66 8 c77 8 139 4 342 -24 166 -23 159 -22 265
-43 191 -37 267 -56 227 -56 -7 0 -12 -4 -12 -10 0 -5 22 -10 48 -10 26 0 88
-9 137 -19 122 -27 240 -37 249 -22 17 26 -19 38 -171 60 -87 12 -201 31 -253
41 -123 26 -429 76 -550 91 -91 12 -151 28 -106 29 34 0 188 51 246 80 30 15
78 46 105 69 28 22 59 40 71 41 11 0 63 -7 115 -16z"/>
<path d="M2045 1400 c28 -5 82 -8 120 -8 l70 1 -65 7 c-36 4 -90 8 -120 7
l-55 0 50 -7z"/>
<path d="M2345 1379 c22 -4 72 -7 110 -7 l70 1 -55 7 c-30 5 -80 8 -110 8 -55
0 -55 0 -15 -9z"/>
<path d="M2618 1363 c7 -3 16 -2 19 1 4 3 -2 6 -13 5 -11 0 -14 -3 -6 -6z"/>
<path d="M736 2189 c-32 -5 -62 -12 -65 -15 -3 -4 9 -4 28 0 18 3 88 7 155 7
101 2 112 3 66 9 -70 10 -110 10 -184 -1z"/>
<path d="M470 2127 c-60 -25 -215 -114 -268 -154 -18 -14 -60 -58 -92 -99 -85
-107 -99 -178 -40 -209 35 -18 160 -7 245 23 186 63 353 112 385 112 20 0 19
-3 -13 -40 -53 -63 -57 -111 -10 -151 34 -30 199 -78 323 -94 25 -3 79 -13
120 -20 41 -8 95 -17 120 -19 25 -3 95 -12 155 -20 110 -16 203 -21 193 -11
-3 3 -61 12 -129 21 -382 45 -681 116 -740 175 -22 22 -18 37 24 95 17 25 27
51 25 65 -3 21 -8 24 -43 23 -47 -1 -117 -19 -275 -69 -63 -20 -126 -39 -140
-41 -14 -3 -41 -9 -60 -14 -45 -13 -86 -12 -133 1 -33 9 -37 13 -37 43 0 25
15 53 59 112 32 44 69 89 82 100 47 42 222 148 283 170 33 13 52 23 41 23 -11
0 -45 -10 -75 -22z"/>
<path d="M1398 2123 c6 -2 18 -2 25 0 6 3 1 5 -13 5 -14 0 -19 -2 -12 -5z"/>
<path d="M1515 2099 c170 -44 275 -66 275 -59 0 9 -241 69 -305 75 -43 4 -39
2 30 -16z"/>
</g>
</svg>
